<?xml version="1.0" standalone="no"?>
<!DOCTYPE svg PUBLIC "-//W3C//DTD SVG 20010904//EN"
 "http://www.w3.org/TR/2001/REC-SVG-20010904/DTD/svg10.dtd">
<svg version="1.0" xmlns="http://www.w3.org/2000/svg"
 width="500.000000pt" height="562.000000pt" viewBox="0 0 500.000000 562.000000"
 preserveAspectRatio="xMidYMid meet">

<g transform="translate(0.000000,562.000000) scale(0.100000,-0.100000)"
fill="#C00000" stroke="none">
<path d="M2524 5210 c-26 -10 -41 -47 -64 -160 -44 -206 -61 -281 -70 -305 -6
-15 -10 -40 -10 -56 0 -28 2 -29 48 -31 114 -4 166 -2 180 8 21 16 41 79 52
169 6 44 17 100 24 125 8 25 20 87 27 139 12 88 11 95 -6 107 -21 16 -146 18
-181 4z"/>
<path d="M1833 4478 c-6 -7 -18 -38 -27 -69 -19 -68 -36 -85 -101 -97 -27 -5
-77 -16 -110 -24 -33 -9 -105 -25 -160 -37 -55 -13 -134 -31 -175 -41 -41 -11
-95 -22 -120 -26 -25 -3 -53 -11 -64 -16 -10 -6 -53 -16 -95 -23 -70 -12 -124
-27 -161 -45 -11 -5 -16 -26 -18 -72 -4 -86 6 -95 88 -78 33 7 64 10 68 6 4
-4 9 -90 12 -191 3 -101 9 -187 13 -192 5 -4 680 -9 1499 -11 1379 -2 1493 -1
1510 14 16 15 18 34 18 175 0 154 9 209 34 209 6 0 27 -5 47 -10 25 -7 45 -7
63 0 26 9 27 12 24 76 l-3 66 -60 23 c-33 12 -82 25 -110 29 -27 4 -70 13 -95
21 -25 8 -76 21 -115 29 -38 8 -91 19 -117 25 -27 6 -69 16 -95 22 -27 6 -84
18 -128 28 -44 10 -96 23 -115 29 -19 6 -54 14 -77 17 -64 10 -83 30 -92 98
-4 31 -11 60 -15 64 -4 5 -301 9 -660 11 -521 2 -655 0 -663 -10z"/>
<path d="M996 3377 c-34 -25 -10 -640 39 -972 8 -55 20 -155 25 -223 6 -68 15
-134 20 -146 5 -13 14 -77 20 -142 6 -65 17 -141 24 -169 8 -27 17 -85 21
-128 3 -43 11 -90 16 -105 6 -15 15 -53 19 -85 5 -32 14 -65 21 -73 10 -12
202 -113 354 -186 22 -11 47 -23 55 -28 8 -5 87 -45 175 -90 88 -44 167 -85
175 -90 8 -6 26 -15 40 -20 72 -29 165 -92 310 -209 173 -141 191 -149 239
-109 15 13 40 32 56 43 15 11 44 35 64 53 20 18 61 52 91 75 30 23 63 50 74
59 10 9 75 45 145 78 69 34 133 66 141 71 8 4 50 26 92 48 42 22 85 45 95 50
10 6 29 15 43 21 14 5 32 14 40 19 8 6 50 27 94 48 116 56 130 63 146 74 8 5
26 14 40 19 14 6 32 14 40 20 8 5 32 17 52 26 31 13 40 24 49 58 6 22 17 64
24 91 7 28 16 77 20 110 4 33 13 83 20 110 7 28 16 82 20 120 4 39 13 99 20
135 7 36 19 121 25 190 6 69 15 144 20 166 5 23 17 145 25 270 9 126 20 274
25 329 14 153 13 478 -2 493 -18 18 -2987 17 -3012 -1z"/>
</g>
</svg>
