<?xml version="1.0" standalone="no"?>
<!DOCTYPE svg PUBLIC "-//W3C//DTD SVG 20010904//EN"
 "http://www.w3.org/TR/2001/REC-SVG-20010904/DTD/svg10.dtd">
<svg version="1.0" xmlns="http://www.w3.org/2000/svg"
 width="512.000000pt" height="512.000000pt" viewBox="0 0 512.000000 512.000000"
 preserveAspectRatio="xMidYMid meet">

<g transform="translate(0.000000,512.000000) scale(0.100000,-0.100000)"
fill="#000CA4" stroke="none">
<path d="M2526 5098 c-35 -53 -407 -892 -404 -911 2 -11 11 -25 21 -31 14 -9
41 2 147 57 l130 68 0 -993 c0 -780 -3 -998 -13 -1018 -32 -63 -162 -61 -365
5 -159 51 -261 105 -341 181 -157 147 -183 299 -107 614 185 764 94 1287 -267
1541 -71 49 -103 59 -125 37 -17 -17 -17 -859 0 -876 20 -20 45 -14 97 23 26
19 53 35 59 35 32 0 21 -306 -17 -491 -25 -121 -41 -169 -106 -309 -69 -148
-88 -222 -89 -335 0 -114 26 -197 94 -293 93 -132 222 -230 517 -389 364 -197
462 -264 511 -352 l23 -41 -33 0 c-66 0 -73 -14 -73 -142 l0 -113 375 0 375 0
0 113 c0 128 -7 142 -72 142 l-34 0 16 31 c46 89 145 160 447 322 108 59 227
125 265 148 289 177 417 353 416 574 0 114 -20 189 -88 335 -63 137 -80 185
-106 305 -37 177 -49 495 -18 495 5 0 32 -16 60 -35 54 -37 77 -43 97 -23 17
17 17 859 0 876 -22 22 -54 12 -125 -37 -361 -254 -452 -779 -267 -1539 72
-300 52 -450 -80 -590 -91 -98 -217 -165 -417 -223 -173 -50 -287 -46 -316 11
-10 20 -13 239 -13 1018 l0 993 130 -68 c106 -55 133 -66 147 -57 10 6 19 20
21 31 3 19 -369 858 -404 911 -8 12 -23 22 -34 22 -11 0 -26 -10 -34 -22z"/>
<path d="M2183 1196 c4 -40 11 -85 16 -99 15 -38 70 -96 113 -118 l38 -19 0
-468 c0 -351 3 -471 12 -480 17 -17 379 -17 396 0 9 9 12 129 12 480 l0 467
33 17 c83 42 124 109 134 219 l6 75 -383 0 -383 0 6 -74z"/>
</g>
</svg>
